<svg width="176" height="44" viewBox="0 0 176 44" fill="none" xmlns="http://www.w3.org/2000/svg">
<g clip-path="url(#clip0_437_439)">
<path d="M153.537 43.5234H22.0001C9.72645 43.5234 -0.231445 33.6693 -0.231445 21.5234C-0.231445 9.3776 9.72645 -0.476562 22.0001 -0.476562H153.537C165.811 -0.476562 175.769 9.3776 175.769 21.5234C175.769 33.6693 165.811 43.5234 153.537 43.5234Z" fill="white"/>
<path d="M114.87 11.7109C115.528 11.7109 116.061 11.9095 116.469 12.3067C116.877 12.6973 117.081 13.2637 117.081 14.0059V17.1603H116.193V14.1329C116.193 13.599 116.058 13.1921 115.788 12.9121C115.518 12.6257 115.15 12.4824 114.683 12.4824C114.209 12.4824 113.831 12.6289 113.548 12.9219C113.272 13.2149 113.133 13.6413 113.133 14.2012V17.1603H112.235V11.8086H113.133V12.5703C113.311 12.2969 113.551 12.0853 113.854 11.9356C114.163 11.7858 114.502 11.7109 114.87 11.7109Z" fill="black"/>
<path d="M110.271 10.9395C110.099 10.9395 109.955 10.8809 109.836 10.7637C109.718 10.6465 109.659 10.5033 109.659 10.334C109.659 10.1647 109.718 10.0215 109.836 9.9043C109.955 9.78711 110.099 9.72852 110.271 9.72852C110.435 9.72852 110.573 9.78711 110.685 9.9043C110.803 10.0215 110.863 10.1647 110.863 10.334C110.863 10.5033 110.803 10.6465 110.685 10.7637C110.573 10.8809 110.435 10.9395 110.271 10.9395ZM110.705 11.8087V17.1604H109.807V11.8087H110.705Z" fill="black"/>
<path d="M107.023 12.6778C107.181 12.3718 107.405 12.1341 107.694 11.9649C107.99 11.7956 108.349 11.7109 108.77 11.7109V12.6289H108.533C107.526 12.6289 107.023 13.1693 107.023 14.2501V17.1603H106.125V11.8086H107.023V12.6778Z" fill="black"/>
<path d="M104.16 10.9395C103.989 10.9395 103.844 10.8809 103.726 10.7637C103.608 10.6465 103.548 10.5033 103.548 10.334C103.548 10.1647 103.608 10.0215 103.726 9.9043C103.844 9.78711 103.989 9.72852 104.16 9.72852C104.325 9.72852 104.463 9.78711 104.575 9.9043C104.693 10.0215 104.752 10.1647 104.752 10.334C104.752 10.5033 104.693 10.6465 104.575 10.7637C104.463 10.8809 104.325 10.9395 104.16 10.9395ZM104.594 11.8087V17.1604H103.696V11.8087H104.594Z" fill="black"/>
<path d="M96.6919 14.465C96.6919 13.9181 96.8037 13.4395 97.0274 13.0294C97.2511 12.6127 97.557 12.2904 97.9452 12.0626C98.34 11.8347 98.7808 11.7208 99.2676 11.7208C99.6887 11.7208 100.08 11.8184 100.442 12.0137C100.804 12.2025 101.08 12.4532 101.271 12.7657V9.93359H102.179V17.1604H101.271V16.1545C101.093 16.4735 100.83 16.7372 100.481 16.9455C100.133 17.1473 99.7249 17.2482 99.2578 17.2482C98.7775 17.2482 98.34 17.1311 97.9452 16.8967C97.557 16.6623 97.2511 16.3335 97.0274 15.9103C96.8037 15.4871 96.6919 15.0053 96.6919 14.465ZM101.271 14.4747C101.271 14.0711 101.189 13.7195 101.024 13.42C100.86 13.1205 100.636 12.8927 100.353 12.7364C100.077 12.5736 99.7709 12.4923 99.4354 12.4923C99.0999 12.4923 98.7939 12.5704 98.5176 12.7266C98.2413 12.8829 98.0209 13.1108 97.8564 13.4103C97.6919 13.7097 97.6097 14.0613 97.6097 14.465C97.6097 14.8751 97.6919 15.2332 97.8564 15.5392C98.0209 15.8387 98.2413 16.0698 98.5176 16.2326C98.7939 16.3888 99.0999 16.467 99.4354 16.467C99.7709 16.467 100.077 16.3888 100.353 16.2326C100.636 16.0698 100.86 15.8387 101.024 15.5392C101.189 15.2332 101.271 14.8784 101.271 14.4747Z" fill="black"/>
<path d="M93.3498 11.7109C94.0077 11.7109 94.5406 11.9095 94.9485 12.3067C95.3564 12.6973 95.5604 13.2637 95.5604 14.0059V17.1603H94.6722V14.1329C94.6722 13.599 94.5373 13.1921 94.2676 12.9121C93.9978 12.6257 93.6294 12.4824 93.1623 12.4824C92.6886 12.4824 92.3103 12.6289 92.0274 12.9219C91.7511 13.2149 91.6129 13.6413 91.6129 14.2012V17.1603H90.7148V11.8086H91.6129V12.5703C91.7905 12.2969 92.0307 12.0853 92.3333 11.9356C92.6425 11.7858 92.9814 11.7109 93.3498 11.7109Z" fill="black"/>
<path d="M89.1844 10.3536V17.1604H88.2864V10.3536H89.1844ZM88.7403 9.72854C88.5956 9.72854 88.4706 9.67971 88.3653 9.58206C88.2666 9.4844 88.2173 9.36395 88.2173 9.22072C88.2173 9.07748 88.2666 8.95704 88.3653 8.85938C88.4706 8.75521 88.5956 8.70312 88.7403 8.70312C88.8851 8.70312 89.0068 8.75521 89.1055 8.85938C89.2042 8.95704 89.2535 9.07748 89.2535 9.22072C89.2535 9.36395 89.2042 9.4844 89.1055 9.58206C89.0068 9.67971 88.8851 9.72854 88.7403 9.72854Z" fill="black"/>
<path d="M81.9777 11.7109C82.6356 11.7109 83.1685 11.9095 83.5764 12.3067C83.9843 12.6973 84.1883 13.2637 84.1883 14.0059V17.1603H83.3001V14.1329C83.3001 13.599 83.1652 13.1921 82.8955 12.9121C82.6258 12.6257 82.2573 12.4824 81.7902 12.4824C81.3165 12.4824 80.9382 12.6289 80.6553 12.9219C80.379 13.2149 80.2408 13.6413 80.2408 14.2012V17.1603H79.3428V11.8086H80.2408V12.5703C80.4185 12.2969 80.6586 12.0853 80.9612 11.9356C81.2705 11.7858 81.6093 11.7109 81.9777 11.7109Z" fill="black"/>
<path d="M78.1576 14.2794C78.1576 14.4486 78.1477 14.6277 78.128 14.8165H73.8055C73.8384 15.3438 74.0193 15.7573 74.3483 16.0568C74.6838 16.3497 75.0884 16.4962 75.5621 16.4962C75.9503 16.4962 76.2727 16.4083 76.5292 16.2325C76.7924 16.0502 76.9766 15.8094 77.0819 15.5099H78.049C77.9043 16.0242 77.6148 16.4441 77.1806 16.7697C76.7464 17.0887 76.2069 17.2482 75.5621 17.2482C75.0489 17.2482 74.5884 17.1343 74.1805 16.9064C73.7792 16.6785 73.4634 16.3562 73.2331 15.9396C73.0028 15.5164 72.8877 15.0281 72.8877 14.4747C72.8877 13.9213 72.9995 13.4362 73.2232 13.0196C73.4469 12.6029 73.7594 12.2839 74.1608 12.0625C74.5687 11.8346 75.0358 11.7207 75.5621 11.7207C76.0753 11.7207 76.5292 11.8314 76.924 12.0527C77.3187 12.2741 77.6214 12.5801 77.8319 12.9707C78.049 13.3549 78.1576 13.7911 78.1576 14.2794ZM77.2299 14.0938C77.2299 13.7553 77.1543 13.4655 77.0029 13.2247C76.8516 12.9772 76.6444 12.7917 76.3812 12.668C76.1246 12.5378 75.8384 12.4727 75.5226 12.4727C75.0687 12.4727 74.6805 12.6159 74.3581 12.9024C74.0423 13.1888 73.8614 13.586 73.8154 14.0938H77.2299Z" fill="black"/>
<path d="M69.5591 11.7109C69.9802 11.7109 70.3552 11.7988 70.6842 11.9746C71.0131 12.1439 71.273 12.4011 71.4638 12.7461C71.6546 13.0912 71.75 13.5111 71.75 14.0059V17.1603H70.8618V14.1329C70.8618 13.599 70.7269 13.1921 70.4572 12.9121C70.194 12.6257 69.8355 12.4824 69.3815 12.4824C68.9144 12.4824 68.5427 12.6322 68.2663 12.9317C67.99 13.2247 67.8518 13.6511 67.8518 14.211V17.1603H66.9637V14.1329C66.9637 13.599 66.8288 13.1921 66.559 12.9121C66.2959 12.6257 65.9373 12.4824 65.4834 12.4824C65.0162 12.4824 64.6445 12.6322 64.3682 12.9317C64.0919 13.2247 63.9537 13.6511 63.9537 14.211V17.1603H63.0557V11.8086H63.9537V12.5801C64.1314 12.3001 64.3682 12.0853 64.6643 11.9356C64.9669 11.7858 65.2991 11.7109 65.661 11.7109C66.115 11.7109 66.5163 11.8119 66.865 12.0137C67.2137 12.2155 67.4735 12.5117 67.6446 12.9024C67.7959 12.5248 68.0459 12.2318 68.3946 12.0234C68.7433 11.8151 69.1315 11.7109 69.5591 11.7109Z" fill="black"/>
<path d="M61.8705 14.2794C61.8705 14.4486 61.8606 14.6277 61.8409 14.8165H57.5184C57.5513 15.3438 57.7322 15.7573 58.0612 16.0568C58.3967 16.3497 58.8013 16.4962 59.275 16.4962C59.6632 16.4962 59.9855 16.4083 60.2421 16.2325C60.5053 16.0502 60.6895 15.8094 60.7948 15.5099H61.7619C61.6172 16.0242 61.3277 16.4441 60.8935 16.7697C60.4592 17.0887 59.9198 17.2482 59.275 17.2482C58.7618 17.2482 58.3013 17.1343 57.8934 16.9064C57.4921 16.6785 57.1763 16.3562 56.946 15.9396C56.7157 15.5164 56.6006 15.0281 56.6006 14.4747C56.6006 13.9213 56.7124 13.4362 56.9361 13.0196C57.1598 12.6029 57.4723 12.2839 57.8736 12.0625C58.2816 11.8346 58.7487 11.7207 59.275 11.7207C59.7882 11.7207 60.2421 11.8314 60.6369 12.0527C61.0316 12.2741 61.3343 12.5801 61.5448 12.9707C61.7619 13.3549 61.8705 13.7911 61.8705 14.2794ZM60.9428 14.0938C60.9428 13.7553 60.8671 13.4655 60.7158 13.2247C60.5645 12.9772 60.3573 12.7917 60.0941 12.668C59.8375 12.5378 59.5513 12.4727 59.2355 12.4727C58.7816 12.4727 58.3934 12.6159 58.071 12.9024C57.7552 13.1888 57.5743 13.586 57.5282 14.0938H60.9428Z" fill="black"/>
<path d="M55.4025 10.3535V17.1603H54.5045V14.0743H51.0011V17.1603H50.103V10.3535H51.0011V13.3419H54.5045V10.3535H55.4025Z" fill="black"/>
<path d="M34.6256 21.4775C34.5978 17.8567 37.6176 16.0967 37.7565 16.0142C36.0429 13.5484 33.3843 13.2 32.458 13.1725C30.2349 12.9434 28.0673 14.4925 26.9279 14.4925C25.77 14.4925 24.0193 13.2 22.1389 13.2275C19.7212 13.2642 17.4424 14.6575 16.2012 16.8209C13.6353 21.2209 15.5435 27.6925 18.0075 31.2492C19.2395 32.9909 20.6753 34.9434 22.565 34.87C24.4083 34.7967 25.1031 33.7059 27.317 33.7059C29.5216 33.7059 30.17 34.87 32.0875 34.8242C34.0698 34.7967 35.3018 33.0734 36.4968 31.3134C37.914 29.3242 38.4883 27.3534 38.5069 27.2525C38.4513 27.2434 34.6626 25.8042 34.6256 21.4775Z" fill="black"/>
<path d="M30.9942 10.8445C31.9854 9.62529 32.6616 7.95695 32.4763 6.25195C31.0498 6.31612 29.2435 7.23278 28.2153 8.43362C27.3075 9.49695 26.4923 11.2203 26.6961 12.852C28.3079 12.9803 29.966 12.0453 30.9942 10.8445Z" fill="black"/>
<path d="M58.9412 32.9177H56.6532L55.4027 29.0219H51.049L49.8633 32.9177H47.6401L51.9475 19.6719H54.6153L58.9412 32.9177ZM55.0414 27.3902L53.9113 23.9344C53.7909 23.5769 53.5686 22.7519 53.2444 21.441H53.198C53.0591 22.0094 52.8553 22.8435 52.5681 23.9344L51.4566 27.3902H55.0414Z" fill="black"/>
<path d="M70.0106 28.0234C70.0106 29.6459 69.566 30.9292 68.6675 31.8734C67.8709 32.7167 66.8705 33.1292 65.694 33.1292C64.4157 33.1292 63.4987 32.68 62.9429 31.7725V36.7867H60.7938V26.5017C60.7938 25.475 60.766 24.4392 60.7104 23.3667H62.6001L62.7205 24.8792H62.7576C63.4709 23.7425 64.5639 23.165 66.009 23.165C67.1483 23.165 68.0932 23.6142 68.8527 24.5034C69.6308 25.4017 70.0106 26.5659 70.0106 28.0234ZM67.8245 28.0967C67.8245 27.1617 67.6115 26.4009 67.1947 25.805C66.7315 25.1817 66.1109 24.8609 65.3235 24.8609C64.7955 24.8609 64.3138 25.0442 63.8784 25.3834C63.4523 25.7317 63.1652 26.1809 63.0355 26.7492C62.9706 27.0059 62.9336 27.2259 62.9336 27.3909V28.9859C62.9336 29.6734 63.1467 30.2692 63.5728 30.7459C63.9989 31.2225 64.5639 31.4609 65.2494 31.4609C66.0553 31.4609 66.6852 31.1492 67.1391 30.535C67.6022 29.9209 67.8245 29.1142 67.8245 28.0967Z" fill="black"/>
<path d="M81.1078 28.0234C81.1078 29.6459 80.6632 30.9292 79.7647 31.8734C78.968 32.7167 77.9676 33.1292 76.7912 33.1292C75.5129 33.1292 74.5958 32.68 74.04 31.7725V36.7867H71.891V26.5017C71.891 25.475 71.8632 24.4392 71.8076 23.3667H73.6973L73.8177 24.8792H73.8548C74.5681 23.7425 75.6611 23.165 77.1061 23.165C78.2455 23.165 79.1904 23.6142 79.9499 24.5034C80.728 25.4017 81.1078 26.5659 81.1078 28.0234ZM78.9217 28.0967C78.9217 27.1617 78.7087 26.4009 78.2918 25.805C77.8287 25.1817 77.208 24.8609 76.4207 24.8609C75.8927 24.8609 75.411 25.0442 74.9756 25.3834C74.5495 25.7317 74.2716 26.1809 74.1327 26.7492C74.0678 27.0059 74.0308 27.2259 74.0308 27.3909V28.9859C74.0308 29.6734 74.2438 30.2692 74.6699 30.7459C75.096 31.2225 75.6611 31.4609 76.3466 31.4609C77.1525 31.4609 77.7916 31.1492 78.2363 30.535C78.6994 29.9209 78.9217 29.1142 78.9217 28.0967Z" fill="black"/>
<path d="M93.5205 29.1963C93.5205 30.3238 93.1222 31.2405 92.3348 31.9463C91.4641 32.7163 90.2506 33.1013 88.6944 33.1013C87.2493 33.1013 86.1007 32.8263 85.23 32.2763L85.7302 30.5071C86.675 31.0571 87.7032 31.3321 88.8333 31.3321C89.6392 31.3321 90.2784 31.1488 90.723 30.7913C91.1769 30.4338 91.3992 29.948 91.3992 29.343C91.3992 28.8021 91.2047 28.353 90.8435 27.9863C90.4729 27.6196 89.8523 27.2805 88.9908 26.9597C86.6287 26.0888 85.4523 24.8238 85.4523 23.1647C85.4523 22.083 85.8691 21.1938 86.6935 20.488C87.518 19.8005 88.611 19.4521 89.982 19.4521C91.1955 19.4521 92.2144 19.663 93.0203 20.0755L92.4737 21.7988C91.7142 21.3955 90.862 21.1846 89.8986 21.1846C89.1483 21.1846 88.5462 21.3772 88.1201 21.7347C87.7681 22.0647 87.5828 22.4588 87.5828 22.9355C87.5828 23.458 87.7959 23.898 88.2034 24.228C88.5554 24.5396 89.2131 24.8788 90.1487 25.2547C91.2973 25.713 92.1403 26.2538 92.6868 26.868C93.2519 27.5096 93.5205 28.2888 93.5205 29.1963Z" fill="black"/>
<path d="M100.625 24.9614H98.2632V29.5997C98.2632 30.773 98.68 31.3689 99.5137 31.3689C99.8935 31.3689 100.208 31.3322 100.468 31.268L100.533 32.8814C100.107 33.0372 99.5508 33.1105 98.8653 33.1105C98.0131 33.1105 97.3647 32.8539 96.883 32.3405C96.4013 31.8272 96.1697 30.9655 96.1697 29.7647V24.9522H94.7617V23.3664H96.1697V21.6155L98.2725 20.9922V23.3664H100.635V24.9614" fill="black"/>
<path d="M111.269 28.06C111.269 29.5267 110.843 30.7367 110 31.6717C109.11 32.6434 107.934 33.1292 106.461 33.1292C105.044 33.1292 103.914 32.6617 103.071 31.7359C102.228 30.81 101.811 29.6367 101.811 28.2159C101.811 26.74 102.246 25.5209 103.108 24.5859C103.979 23.6417 105.146 23.165 106.619 23.165C108.036 23.165 109.175 23.6325 110.037 24.5675C110.861 25.4659 111.269 26.6392 111.269 28.06ZM109.046 28.1059C109.046 27.2259 108.851 26.4834 108.471 25.8509C108.017 25.09 107.378 24.7142 106.544 24.7142C105.683 24.7142 105.025 25.09 104.581 25.8509C104.192 26.4742 104.006 27.2442 104.006 28.1425C104.006 29.0225 104.201 29.7742 104.581 30.3975C105.044 31.1584 105.692 31.5342 106.526 31.5342C107.341 31.5342 107.99 31.1492 108.453 30.3792C108.851 29.7375 109.046 28.9859 109.046 28.1059Z" fill="black"/>
<path d="M118.244 25.2275C118.031 25.1909 117.809 25.1725 117.568 25.1725C116.818 25.1725 116.225 25.4475 115.817 26.0159C115.465 26.5109 115.28 27.1434 115.28 27.895V32.9092H113.131V26.3642C113.131 25.2642 113.112 24.2559 113.066 23.3575H114.937L115.02 25.1909H115.085C115.308 24.5675 115.669 24.0542 116.151 23.6784C116.632 23.3392 117.151 23.165 117.697 23.165C117.901 23.165 118.077 23.1834 118.235 23.2017L118.244 25.2275Z" fill="black"/>
<path d="M127.831 27.6834C127.831 28.0592 127.803 28.38 127.748 28.6459H121.31C121.338 29.59 121.643 30.3142 122.245 30.8092C122.792 31.2492 123.487 31.4692 124.348 31.4692C125.302 31.4692 126.173 31.3134 126.951 31.02L127.285 32.4867C126.368 32.8809 125.293 33.0825 124.052 33.0825C122.56 33.0825 121.375 32.6425 120.522 31.7717C119.67 30.9009 119.244 29.7275 119.244 28.2609C119.244 26.8217 119.642 25.6209 120.439 24.6676C121.273 23.6409 122.394 23.1367 123.811 23.1367C125.2 23.1367 126.256 23.6501 126.96 24.6676C127.544 25.4926 127.831 26.4917 127.831 27.6834ZM125.784 27.1334C125.802 26.5101 125.654 25.9601 125.367 25.5017C124.997 24.9059 124.422 24.6126 123.663 24.6126C122.968 24.6126 122.394 24.8967 121.958 25.4742C121.606 25.9325 121.384 26.4917 121.328 27.1242L125.784 27.1334Z" fill="black"/>
</g>
<defs>
<clipPath id="clip0_437_439">
<rect width="176" height="44" fill="white"/>
</clipPath>
</defs>
</svg>
