<svg width="176" height="44" viewBox="0 0 176 44" fill="none" xmlns="http://www.w3.org/2000/svg">
<g clip-path="url(#clip0_437_406)">
<path d="M153.768 44H22.2316C9.95789 44 0 34.1458 0 22C0 9.85417 9.95789 0 22.2316 0H153.768C166.042 0 176 9.85417 176 22C176 34.1458 166.042 44 153.768 44Z" fill="white"/>
<path opacity="0.54" d="M79.089 23.5398C76.4398 23.5398 74.2907 25.529 74.2907 28.279C74.2907 31.0107 76.4398 33.0182 79.089 33.0182C81.7383 33.0182 83.8873 31.0107 83.8873 28.279C83.8873 25.5473 81.7383 23.5398 79.089 23.5398ZM79.089 31.1573C77.644 31.1573 76.3842 29.9657 76.3842 28.2882C76.3842 26.574 77.6347 25.419 79.089 25.419C80.5433 25.419 81.7939 26.5832 81.7939 28.2882C81.7846 29.9657 80.5341 31.1573 79.089 31.1573ZM91.9556 24.6123H91.8815C91.4183 24.0532 90.5105 23.549 89.3619 23.549C86.972 23.549 84.7766 25.639 84.7766 28.2973C84.7766 30.9465 86.972 33.0182 89.3619 33.0182C90.5105 33.0182 91.4183 32.514 91.8815 31.9365H91.9556V32.624C91.9556 34.4298 90.9829 35.4015 89.4082 35.4015C88.1206 35.4015 87.324 34.494 86.9998 33.724L85.1749 34.4848C85.7029 35.7498 87.1017 37.2898 89.4267 37.2898C91.8907 37.2898 93.9749 35.8598 93.9749 32.3582V23.8515H91.9741L91.9556 24.6123ZM89.5471 31.1573C88.1021 31.1573 86.8886 29.9565 86.8886 28.2973C86.8886 26.629 88.1021 25.4098 89.5471 25.4098C90.9737 25.4098 92.0945 26.629 92.0945 28.2973C92.0945 29.9657 90.9737 31.1573 89.5471 31.1573ZM68.6124 23.5398C65.9631 23.5398 63.8141 25.529 63.8141 28.279C63.8141 31.0107 65.9631 33.0182 68.6124 33.0182C71.2617 33.0182 73.4107 31.0107 73.4107 28.279C73.4107 25.5473 71.2617 23.5398 68.6124 23.5398ZM68.6124 31.1573C67.1673 31.1573 65.9076 29.9657 65.9076 28.2882C65.9076 26.574 67.1581 25.419 68.6124 25.419C70.0574 25.419 71.3172 26.5832 71.3172 28.2882C71.308 29.9657 70.0574 31.1573 68.6124 31.1573ZM56.1349 24.9882V26.9957H60.9888C60.8499 28.1323 60.4608 28.9573 59.8865 29.5348C59.1825 30.2315 58.0709 31.0107 56.1349 31.0107C53.1429 31.0107 50.8086 28.6273 50.8086 25.6665C50.8086 22.7057 53.1429 20.3223 56.1349 20.3223C57.7467 20.3223 58.9231 20.9548 59.8031 21.7523L61.2297 20.3407C60.0162 19.1948 58.3951 18.3057 56.1349 18.3057C52.0406 18.3057 48.5854 21.6148 48.5854 25.6665C48.5854 29.7182 52.0313 33.0273 56.1349 33.0273C58.3488 33.0273 60.0162 32.3123 61.3223 30.9648C62.6654 29.6357 63.0823 27.7657 63.0823 26.2715C63.0823 25.8132 63.036 25.3732 62.9711 25.0065L56.1349 24.9882ZM107.119 26.574C106.721 25.5107 105.508 23.5582 103.025 23.5582C100.561 23.5582 98.5046 25.474 98.5046 28.2973C98.5046 30.9465 100.533 33.0365 103.247 33.0365C105.443 33.0365 106.721 31.7073 107.24 30.9373L105.609 29.8557C105.072 30.644 104.322 31.1573 103.257 31.1573C102.191 31.1573 101.432 30.6623 100.932 29.7273L107.332 27.1057L107.119 26.574ZM100.607 28.1415C100.552 26.3082 102.034 25.3823 103.118 25.3823C103.951 25.3823 104.665 25.7857 104.887 26.3907L100.607 28.1415ZM95.3922 32.734H97.4857V18.819H95.3922V32.734ZM116.975 18.819H111.945V32.734H114.039V27.4632H116.966C119.291 27.4632 121.579 25.7948 121.579 23.1365C121.598 20.4873 119.3 18.819 116.975 18.819ZM117.04 25.5015H114.048V20.7348H117.04C118.615 20.7348 119.504 22.0273 119.504 23.1182C119.504 24.209 118.606 25.5015 117.04 25.5015ZM122.756 32.734H124.849V18.819H122.756V32.734ZM130.009 23.5123C128.489 23.5123 126.905 24.1723 126.257 25.639L128.128 26.409C128.527 25.639 129.258 25.3823 130.036 25.3823C131.129 25.3823 132.232 26.024 132.25 27.179V27.3165C131.871 27.1057 131.065 26.7848 130.055 26.7848C128.045 26.7848 126.007 27.8757 126.007 29.9198C126.007 31.7807 127.647 32.9723 129.508 32.9723C130.926 32.9723 131.704 32.3398 132.185 31.6157H132.26V32.6973H134.288V27.3532C134.288 24.9057 132.417 23.5123 130.009 23.5123ZM129.759 31.1573C129.064 31.1573 128.119 30.8182 128.119 29.984C128.119 28.9023 129.305 28.499 130.342 28.499C131.259 28.499 131.704 28.6915 132.25 28.9573C132.093 30.2407 130.972 31.1573 129.759 31.1573ZM141.662 23.824L139.253 29.8648H139.179L136.687 23.824H134.418L138.16 32.2573L136.02 36.969H138.216L143.996 23.8332H141.662V23.824Z" fill="#020200"/>
<path opacity="0.54" d="M79.089 23.5398C76.4398 23.5398 74.2907 25.529 74.2907 28.279C74.2907 31.0107 76.4398 33.0182 79.089 33.0182C81.7383 33.0182 83.8873 31.0107 83.8873 28.279C83.8873 25.5473 81.7383 23.5398 79.089 23.5398ZM79.089 31.1573C77.644 31.1573 76.3842 29.9657 76.3842 28.2882C76.3842 26.574 77.6347 25.419 79.089 25.419C80.5433 25.419 81.7939 26.5832 81.7939 28.2882C81.7846 29.9657 80.5341 31.1573 79.089 31.1573ZM91.9556 24.6123H91.8815C91.4183 24.0532 90.5105 23.549 89.3619 23.549C86.972 23.549 84.7766 25.639 84.7766 28.2973C84.7766 30.9465 86.972 33.0182 89.3619 33.0182C90.5105 33.0182 91.4183 32.514 91.8815 31.9365H91.9556V32.624C91.9556 34.4298 90.9829 35.4015 89.4082 35.4015C88.1206 35.4015 87.324 34.494 86.9998 33.724L85.1749 34.4848C85.7029 35.7498 87.1017 37.2898 89.4267 37.2898C91.8907 37.2898 93.9749 35.8598 93.9749 32.3582V23.8515H91.9741L91.9556 24.6123ZM89.5471 31.1573C88.1021 31.1573 86.8886 29.9565 86.8886 28.2973C86.8886 26.629 88.1021 25.4098 89.5471 25.4098C90.9737 25.4098 92.0945 26.629 92.0945 28.2973C92.0945 29.9657 90.9737 31.1573 89.5471 31.1573ZM68.6124 23.5398C65.9631 23.5398 63.8141 25.529 63.8141 28.279C63.8141 31.0107 65.9631 33.0182 68.6124 33.0182C71.2617 33.0182 73.4107 31.0107 73.4107 28.279C73.4107 25.5473 71.2617 23.5398 68.6124 23.5398ZM68.6124 31.1573C67.1673 31.1573 65.9076 29.9657 65.9076 28.2882C65.9076 26.574 67.1581 25.419 68.6124 25.419C70.0574 25.419 71.3172 26.5832 71.3172 28.2882C71.308 29.9657 70.0574 31.1573 68.6124 31.1573ZM56.1349 24.9882V26.9957H60.9888C60.8499 28.1323 60.4608 28.9573 59.8865 29.5348C59.1825 30.2315 58.0709 31.0107 56.1349 31.0107C53.1429 31.0107 50.8086 28.6273 50.8086 25.6665C50.8086 22.7057 53.1429 20.3223 56.1349 20.3223C57.7467 20.3223 58.9231 20.9548 59.8031 21.7523L61.2297 20.3407C60.0162 19.1948 58.3951 18.3057 56.1349 18.3057C52.0406 18.3057 48.5854 21.6148 48.5854 25.6665C48.5854 29.7182 52.0313 33.0273 56.1349 33.0273C58.3488 33.0273 60.0162 32.3123 61.3223 30.9648C62.6654 29.6357 63.0823 27.7657 63.0823 26.2715C63.0823 25.8132 63.036 25.3732 62.9711 25.0065L56.1349 24.9882ZM107.119 26.574C106.721 25.5107 105.508 23.5582 103.025 23.5582C100.561 23.5582 98.5046 25.474 98.5046 28.2973C98.5046 30.9465 100.533 33.0365 103.247 33.0365C105.443 33.0365 106.721 31.7073 107.24 30.9373L105.609 29.8557C105.072 30.644 104.322 31.1573 103.257 31.1573C102.191 31.1573 101.432 30.6623 100.932 29.7273L107.332 27.1057L107.119 26.574ZM100.607 28.1415C100.552 26.3082 102.034 25.3823 103.118 25.3823C103.951 25.3823 104.665 25.7857 104.887 26.3907L100.607 28.1415ZM95.3922 32.734H97.4857V18.819H95.3922V32.734ZM116.975 18.819H111.945V32.734H114.039V27.4632H116.966C119.291 27.4632 121.579 25.7948 121.579 23.1365C121.598 20.4873 119.3 18.819 116.975 18.819ZM117.04 25.5015H114.048V20.7348H117.04C118.615 20.7348 119.504 22.0273 119.504 23.1182C119.504 24.209 118.606 25.5015 117.04 25.5015ZM122.756 32.734H124.849V18.819H122.756V32.734ZM130.009 23.5123C128.489 23.5123 126.905 24.1723 126.257 25.639L128.128 26.409C128.527 25.639 129.258 25.3823 130.036 25.3823C131.129 25.3823 132.232 26.024 132.25 27.179V27.3165C131.871 27.1057 131.065 26.7848 130.055 26.7848C128.045 26.7848 126.007 27.8757 126.007 29.9198C126.007 31.7807 127.647 32.9723 129.508 32.9723C130.926 32.9723 131.704 32.3398 132.185 31.6157H132.26V32.6973H134.288V27.3532C134.288 24.9057 132.417 23.5123 130.009 23.5123ZM129.759 31.1573C129.064 31.1573 128.119 30.8182 128.119 29.984C128.119 28.9023 129.305 28.499 130.342 28.499C131.259 28.499 131.704 28.6915 132.25 28.9573C132.093 30.2407 130.972 31.1573 129.759 31.1573ZM141.662 23.824L139.253 29.8648H139.179L136.687 23.824H134.418L138.16 32.2573L136.02 36.969H138.216L143.996 23.8332H141.662V23.824Z" fill="#020200"/>
<path opacity="0.54" d="M79.089 23.5398C76.4398 23.5398 74.2907 25.529 74.2907 28.279C74.2907 31.0107 76.4398 33.0182 79.089 33.0182C81.7383 33.0182 83.8873 31.0107 83.8873 28.279C83.8873 25.5473 81.7383 23.5398 79.089 23.5398ZM79.089 31.1573C77.644 31.1573 76.3842 29.9657 76.3842 28.2882C76.3842 26.574 77.6347 25.419 79.089 25.419C80.5433 25.419 81.7939 26.5832 81.7939 28.2882C81.7846 29.9657 80.5341 31.1573 79.089 31.1573ZM91.9556 24.6123H91.8815C91.4183 24.0532 90.5105 23.549 89.3619 23.549C86.972 23.549 84.7766 25.639 84.7766 28.2973C84.7766 30.9465 86.972 33.0182 89.3619 33.0182C90.5105 33.0182 91.4183 32.514 91.8815 31.9365H91.9556V32.624C91.9556 34.4298 90.9829 35.4015 89.4082 35.4015C88.1206 35.4015 87.324 34.494 86.9998 33.724L85.1749 34.4848C85.7029 35.7498 87.1017 37.2898 89.4267 37.2898C91.8907 37.2898 93.9749 35.8598 93.9749 32.3582V23.8515H91.9741L91.9556 24.6123ZM89.5471 31.1573C88.1021 31.1573 86.8886 29.9565 86.8886 28.2973C86.8886 26.629 88.1021 25.4098 89.5471 25.4098C90.9737 25.4098 92.0945 26.629 92.0945 28.2973C92.0945 29.9657 90.9737 31.1573 89.5471 31.1573ZM68.6124 23.5398C65.9631 23.5398 63.8141 25.529 63.8141 28.279C63.8141 31.0107 65.9631 33.0182 68.6124 33.0182C71.2617 33.0182 73.4107 31.0107 73.4107 28.279C73.4107 25.5473 71.2617 23.5398 68.6124 23.5398ZM68.6124 31.1573C67.1673 31.1573 65.9076 29.9657 65.9076 28.2882C65.9076 26.574 67.1581 25.419 68.6124 25.419C70.0574 25.419 71.3172 26.5832 71.3172 28.2882C71.308 29.9657 70.0574 31.1573 68.6124 31.1573ZM56.1349 24.9882V26.9957H60.9888C60.8499 28.1323 60.4608 28.9573 59.8865 29.5348C59.1825 30.2315 58.0709 31.0107 56.1349 31.0107C53.1429 31.0107 50.8086 28.6273 50.8086 25.6665C50.8086 22.7057 53.1429 20.3223 56.1349 20.3223C57.7467 20.3223 58.9231 20.9548 59.8031 21.7523L61.2297 20.3407C60.0162 19.1948 58.3951 18.3057 56.1349 18.3057C52.0406 18.3057 48.5854 21.6148 48.5854 25.6665C48.5854 29.7182 52.0313 33.0273 56.1349 33.0273C58.3488 33.0273 60.0162 32.3123 61.3223 30.9648C62.6654 29.6357 63.0823 27.7657 63.0823 26.2715C63.0823 25.8132 63.036 25.3732 62.9711 25.0065L56.1349 24.9882ZM107.119 26.574C106.721 25.5107 105.508 23.5582 103.025 23.5582C100.561 23.5582 98.5046 25.474 98.5046 28.2973C98.5046 30.9465 100.533 33.0365 103.247 33.0365C105.443 33.0365 106.721 31.7073 107.24 30.9373L105.609 29.8557C105.072 30.644 104.322 31.1573 103.257 31.1573C102.191 31.1573 101.432 30.6623 100.932 29.7273L107.332 27.1057L107.119 26.574ZM100.607 28.1415C100.552 26.3082 102.034 25.3823 103.118 25.3823C103.951 25.3823 104.665 25.7857 104.887 26.3907L100.607 28.1415ZM95.3922 32.734H97.4857V18.819H95.3922V32.734ZM116.975 18.819H111.945V32.734H114.039V27.4632H116.966C119.291 27.4632 121.579 25.7948 121.579 23.1365C121.598 20.4873 119.3 18.819 116.975 18.819ZM117.04 25.5015H114.048V20.7348H117.04C118.615 20.7348 119.504 22.0273 119.504 23.1182C119.504 24.209 118.606 25.5015 117.04 25.5015ZM122.756 32.734H124.849V18.819H122.756V32.734ZM130.009 23.5123C128.489 23.5123 126.905 24.1723 126.257 25.639L128.128 26.409C128.527 25.639 129.258 25.3823 130.036 25.3823C131.129 25.3823 132.232 26.024 132.25 27.179V27.3165C131.871 27.1057 131.065 26.7848 130.055 26.7848C128.045 26.7848 126.007 27.8757 126.007 29.9198C126.007 31.7807 127.647 32.9723 129.508 32.9723C130.926 32.9723 131.704 32.3398 132.185 31.6157H132.26V32.6973H134.288V27.3532C134.288 24.9057 132.417 23.5123 130.009 23.5123ZM129.759 31.1573C129.064 31.1573 128.119 30.8182 128.119 29.984C128.119 28.9023 129.305 28.499 130.342 28.499C131.259 28.499 131.704 28.6915 132.25 28.9573C132.093 30.2407 130.972 31.1573 129.759 31.1573ZM141.662 23.824L139.253 29.8648H139.179L136.687 23.824H134.418L138.16 32.2573L136.02 36.969H138.216L143.996 23.8332H141.662V23.824Z" fill="#020200"/>
<path opacity="0.54" d="M79.089 23.5398C76.4398 23.5398 74.2907 25.529 74.2907 28.279C74.2907 31.0107 76.4398 33.0182 79.089 33.0182C81.7383 33.0182 83.8873 31.0107 83.8873 28.279C83.8873 25.5473 81.7383 23.5398 79.089 23.5398ZM79.089 31.1573C77.644 31.1573 76.3842 29.9657 76.3842 28.2882C76.3842 26.574 77.6347 25.419 79.089 25.419C80.5433 25.419 81.7939 26.5832 81.7939 28.2882C81.7846 29.9657 80.5341 31.1573 79.089 31.1573ZM91.9556 24.6123H91.8815C91.4183 24.0532 90.5105 23.549 89.3619 23.549C86.972 23.549 84.7766 25.639 84.7766 28.2973C84.7766 30.9465 86.972 33.0182 89.3619 33.0182C90.5105 33.0182 91.4183 32.514 91.8815 31.9365H91.9556V32.624C91.9556 34.4298 90.9829 35.4015 89.4082 35.4015C88.1206 35.4015 87.324 34.494 86.9998 33.724L85.1749 34.4848C85.7029 35.7498 87.1017 37.2898 89.4267 37.2898C91.8907 37.2898 93.9749 35.8598 93.9749 32.3582V23.8515H91.9741L91.9556 24.6123ZM89.5471 31.1573C88.1021 31.1573 86.8886 29.9565 86.8886 28.2973C86.8886 26.629 88.1021 25.4098 89.5471 25.4098C90.9737 25.4098 92.0945 26.629 92.0945 28.2973C92.0945 29.9657 90.9737 31.1573 89.5471 31.1573ZM68.6124 23.5398C65.9631 23.5398 63.8141 25.529 63.8141 28.279C63.8141 31.0107 65.9631 33.0182 68.6124 33.0182C71.2617 33.0182 73.4107 31.0107 73.4107 28.279C73.4107 25.5473 71.2617 23.5398 68.6124 23.5398ZM68.6124 31.1573C67.1673 31.1573 65.9076 29.9657 65.9076 28.2882C65.9076 26.574 67.1581 25.419 68.6124 25.419C70.0574 25.419 71.3172 26.5832 71.3172 28.2882C71.308 29.9657 70.0574 31.1573 68.6124 31.1573ZM56.1349 24.9882V26.9957H60.9888C60.8499 28.1323 60.4608 28.9573 59.8865 29.5348C59.1825 30.2315 58.0709 31.0107 56.1349 31.0107C53.1429 31.0107 50.8086 28.6273 50.8086 25.6665C50.8086 22.7057 53.1429 20.3223 56.1349 20.3223C57.7467 20.3223 58.9231 20.9548 59.8031 21.7523L61.2297 20.3407C60.0162 19.1948 58.3951 18.3057 56.1349 18.3057C52.0406 18.3057 48.5854 21.6148 48.5854 25.6665C48.5854 29.7182 52.0313 33.0273 56.1349 33.0273C58.3488 33.0273 60.0162 32.3123 61.3223 30.9648C62.6654 29.6357 63.0823 27.7657 63.0823 26.2715C63.0823 25.8132 63.036 25.3732 62.9711 25.0065L56.1349 24.9882ZM107.119 26.574C106.721 25.5107 105.508 23.5582 103.025 23.5582C100.561 23.5582 98.5046 25.474 98.5046 28.2973C98.5046 30.9465 100.533 33.0365 103.247 33.0365C105.443 33.0365 106.721 31.7073 107.24 30.9373L105.609 29.8557C105.072 30.644 104.322 31.1573 103.257 31.1573C102.191 31.1573 101.432 30.6623 100.932 29.7273L107.332 27.1057L107.119 26.574ZM100.607 28.1415C100.552 26.3082 102.034 25.3823 103.118 25.3823C103.951 25.3823 104.665 25.7857 104.887 26.3907L100.607 28.1415ZM95.3922 32.734H97.4857V18.819H95.3922V32.734ZM116.975 18.819H111.945V32.734H114.039V27.4632H116.966C119.291 27.4632 121.579 25.7948 121.579 23.1365C121.598 20.4873 119.3 18.819 116.975 18.819ZM117.04 25.5015H114.048V20.7348H117.04C118.615 20.7348 119.504 22.0273 119.504 23.1182C119.504 24.209 118.606 25.5015 117.04 25.5015ZM122.756 32.734H124.849V18.819H122.756V32.734ZM130.009 23.5123C128.489 23.5123 126.905 24.1723 126.257 25.639L128.128 26.409C128.527 25.639 129.258 25.3823 130.036 25.3823C131.129 25.3823 132.232 26.024 132.25 27.179V27.3165C131.871 27.1057 131.065 26.7848 130.055 26.7848C128.045 26.7848 126.007 27.8757 126.007 29.9198C126.007 31.7807 127.647 32.9723 129.508 32.9723C130.926 32.9723 131.704 32.3398 132.185 31.6157H132.26V32.6973H134.288V27.3532C134.288 24.9057 132.417 23.5123 130.009 23.5123ZM129.759 31.1573C129.064 31.1573 128.119 30.8182 128.119 29.984C128.119 28.9023 129.305 28.499 130.342 28.499C131.259 28.499 131.704 28.6915 132.25 28.9573C132.093 30.2407 130.972 31.1573 129.759 31.1573ZM141.662 23.824L139.253 29.8648H139.179L136.687 23.824H134.418L138.16 32.2573L136.02 36.969H138.216L143.996 23.8332H141.662V23.824Z" fill="#020200"/>
<path opacity="0.54" d="M79.089 23.5398C76.4398 23.5398 74.2907 25.529 74.2907 28.279C74.2907 31.0107 76.4398 33.0182 79.089 33.0182C81.7383 33.0182 83.8873 31.0107 83.8873 28.279C83.8873 25.5473 81.7383 23.5398 79.089 23.5398ZM79.089 31.1573C77.644 31.1573 76.3842 29.9657 76.3842 28.2882C76.3842 26.574 77.6347 25.419 79.089 25.419C80.5433 25.419 81.7939 26.5832 81.7939 28.2882C81.7846 29.9657 80.5341 31.1573 79.089 31.1573ZM91.9556 24.6123H91.8815C91.4183 24.0532 90.5105 23.549 89.3619 23.549C86.972 23.549 84.7766 25.639 84.7766 28.2973C84.7766 30.9465 86.972 33.0182 89.3619 33.0182C90.5105 33.0182 91.4183 32.514 91.8815 31.9365H91.9556V32.624C91.9556 34.4298 90.9829 35.4015 89.4082 35.4015C88.1206 35.4015 87.324 34.494 86.9998 33.724L85.1749 34.4848C85.7029 35.7498 87.1017 37.2898 89.4267 37.2898C91.8907 37.2898 93.9749 35.8598 93.9749 32.3582V23.8515H91.9741L91.9556 24.6123ZM89.5471 31.1573C88.1021 31.1573 86.8886 29.9565 86.8886 28.2973C86.8886 26.629 88.1021 25.4098 89.5471 25.4098C90.9737 25.4098 92.0945 26.629 92.0945 28.2973C92.0945 29.9657 90.9737 31.1573 89.5471 31.1573ZM68.6124 23.5398C65.9631 23.5398 63.8141 25.529 63.8141 28.279C63.8141 31.0107 65.9631 33.0182 68.6124 33.0182C71.2617 33.0182 73.4107 31.0107 73.4107 28.279C73.4107 25.5473 71.2617 23.5398 68.6124 23.5398ZM68.6124 31.1573C67.1673 31.1573 65.9076 29.9657 65.9076 28.2882C65.9076 26.574 67.1581 25.419 68.6124 25.419C70.0574 25.419 71.3172 26.5832 71.3172 28.2882C71.308 29.9657 70.0574 31.1573 68.6124 31.1573ZM56.1349 24.9882V26.9957H60.9888C60.8499 28.1323 60.4608 28.9573 59.8865 29.5348C59.1825 30.2315 58.0709 31.0107 56.1349 31.0107C53.1429 31.0107 50.8086 28.6273 50.8086 25.6665C50.8086 22.7057 53.1429 20.3223 56.1349 20.3223C57.7467 20.3223 58.9231 20.9548 59.8031 21.7523L61.2297 20.3407C60.0162 19.1948 58.3951 18.3057 56.1349 18.3057C52.0406 18.3057 48.5854 21.6148 48.5854 25.6665C48.5854 29.7182 52.0313 33.0273 56.1349 33.0273C58.3488 33.0273 60.0162 32.3123 61.3223 30.9648C62.6654 29.6357 63.0823 27.7657 63.0823 26.2715C63.0823 25.8132 63.036 25.3732 62.9711 25.0065L56.1349 24.9882ZM107.119 26.574C106.721 25.5107 105.508 23.5582 103.025 23.5582C100.561 23.5582 98.5046 25.474 98.5046 28.2973C98.5046 30.9465 100.533 33.0365 103.247 33.0365C105.443 33.0365 106.721 31.7073 107.24 30.9373L105.609 29.8557C105.072 30.644 104.322 31.1573 103.257 31.1573C102.191 31.1573 101.432 30.6623 100.932 29.7273L107.332 27.1057L107.119 26.574ZM100.607 28.1415C100.552 26.3082 102.034 25.3823 103.118 25.3823C103.951 25.3823 104.665 25.7857 104.887 26.3907L100.607 28.1415ZM95.3922 32.734H97.4857V18.819H95.3922V32.734ZM116.975 18.819H111.945V32.734H114.039V27.4632H116.966C119.291 27.4632 121.579 25.7948 121.579 23.1365C121.598 20.4873 119.3 18.819 116.975 18.819ZM117.04 25.5015H114.048V20.7348H117.04C118.615 20.7348 119.504 22.0273 119.504 23.1182C119.504 24.209 118.606 25.5015 117.04 25.5015ZM122.756 32.734H124.849V18.819H122.756V32.734ZM130.009 23.5123C128.489 23.5123 126.905 24.1723 126.257 25.639L128.128 26.409C128.527 25.639 129.258 25.3823 130.036 25.3823C131.129 25.3823 132.232 26.024 132.25 27.179V27.3165C131.871 27.1057 131.065 26.7848 130.055 26.7848C128.045 26.7848 126.007 27.8757 126.007 29.9198C126.007 31.7807 127.647 32.9723 129.508 32.9723C130.926 32.9723 131.704 32.3398 132.185 31.6157H132.26V32.6973H134.288V27.3532C134.288 24.9057 132.417 23.5123 130.009 23.5123ZM129.759 31.1573C129.064 31.1573 128.119 30.8182 128.119 29.984C128.119 28.9023 129.305 28.499 130.342 28.499C131.259 28.499 131.704 28.6915 132.25 28.9573C132.093 30.2407 130.972 31.1573 129.759 31.1573ZM141.662 23.824L139.253 29.8648H139.179L136.687 23.824H134.418L138.16 32.2573L136.02 36.969H138.216L143.996 23.8332H141.662V23.824Z" fill="#020200"/>
<path d="M14.6081 8.84557C14.2839 9.18474 14.0894 9.70724 14.0894 10.3856V34.6039C14.0894 35.2731 14.2839 35.8047 14.6081 36.1439L14.6915 36.2264L28.4102 22.6506V22.3297L14.6915 8.75391L14.6081 8.84557Z" fill="url(#paint0_linear_437_406)"/>
<path d="M32.9676 27.1793L28.4102 22.6509V22.3301L32.9862 17.8018L33.0788 17.8659L38.4977 20.9093C40.0539 21.7709 40.0539 23.2009 38.4977 24.0809L33.0788 27.1243L32.9676 27.1793Z" fill="url(#paint1_linear_437_406)"/>
<path d="M33.0786 27.1145L28.4008 22.4854L14.6079 36.1437C15.1081 36.6754 15.9696 36.7487 16.9052 36.2079L33.0786 27.1145Z" fill="url(#paint2_linear_437_406)"/>
<path d="M33.0786 17.8745L16.9052 8.7812C15.9511 8.24953 15.1081 8.3137 14.6079 8.84537L28.4008 22.4945L33.0786 17.8745Z" fill="url(#paint3_linear_437_406)"/>
<path opacity="0.2" d="M32.9675 27.0146L16.9052 36.0438C15.9974 36.5571 15.21 36.5205 14.6913 36.0621L14.6079 36.1446L14.6913 36.2271C15.21 36.6946 16.0159 36.7221 16.9052 36.2088L33.0786 27.1155L32.9675 27.0146Z" fill="black"/>
<path opacity="0.12" d="M14.6081 35.9787C14.2839 35.6395 14.0894 35.117 14.0894 34.4387V34.5945C14.0894 35.2637 14.2839 35.7953 14.6081 36.1345L14.6915 36.052L14.6081 35.9787ZM38.4793 23.9154L32.9677 27.0229L33.0603 27.1145L38.4793 24.0712C39.2574 23.6404 39.6464 23.0629 39.6464 22.4854C39.5816 23.017 39.1925 23.512 38.4793 23.9154Z" fill="black"/>
<path opacity="0.25" d="M16.9054 8.92814L38.4793 21.0648C39.174 21.4681 39.5816 21.9631 39.6464 22.4856C39.6464 21.9081 39.2574 21.3306 38.4793 20.8998L16.9054 8.7723C15.3491 7.91064 14.0894 8.62564 14.0894 10.3765V10.5323C14.0894 8.78147 15.3491 8.06647 16.9054 8.92814Z" fill="white"/>
<path d="M114.113 11.2305C114.771 11.2305 115.304 11.429 115.712 11.8262C116.12 12.2168 116.324 12.7832 116.324 13.5255V16.6798H115.436V13.6524C115.436 13.1185 115.301 12.7116 115.031 12.4317C114.762 12.1452 114.393 12.002 113.926 12.002C113.452 12.002 113.074 12.1485 112.791 12.4414C112.515 12.7344 112.377 13.1609 112.377 13.7208V16.6798H111.479V11.3281H112.377V12.0899C112.554 11.8164 112.794 11.6048 113.097 11.4551C113.406 11.3053 113.745 11.2305 114.113 11.2305Z" fill="black"/>
<path d="M109.514 10.459C109.343 10.459 109.198 10.4004 109.079 10.2832C108.961 10.166 108.902 10.0228 108.902 9.85353C108.902 9.68426 108.961 9.54102 109.079 9.42383C109.198 9.30664 109.343 9.24805 109.514 9.24805C109.678 9.24805 109.816 9.30664 109.928 9.42383C110.047 9.54102 110.106 9.68426 110.106 9.85353C110.106 10.0228 110.047 10.166 109.928 10.2832C109.816 10.4004 109.678 10.459 109.514 10.459ZM109.948 11.3282V16.6799H109.05V11.3282H109.948Z" fill="black"/>
<path d="M106.266 12.1973C106.424 11.8913 106.648 11.6537 106.937 11.4844C107.233 11.3151 107.592 11.2305 108.013 11.2305V12.1485H107.776C106.77 12.1485 106.266 12.6888 106.266 13.7696V16.6798H105.368V11.3281H106.266V12.1973Z" fill="black"/>
<path d="M103.403 10.459C103.232 10.459 103.088 10.4004 102.969 10.2832C102.851 10.166 102.792 10.0228 102.792 9.85353C102.792 9.68426 102.851 9.54102 102.969 9.42383C103.088 9.30664 103.232 9.24805 103.403 9.24805C103.568 9.24805 103.706 9.30664 103.818 9.42383C103.936 9.54102 103.995 9.68426 103.995 9.85353C103.995 10.0228 103.936 10.166 103.818 10.2832C103.706 10.4004 103.568 10.459 103.403 10.459ZM103.838 11.3282V16.6799H102.94V11.3282H103.838Z" fill="black"/>
<path d="M95.9351 13.9845C95.9351 13.4376 96.0469 12.9591 96.2706 12.5489C96.4943 12.1322 96.8002 11.81 97.1884 11.5821C97.5831 11.3542 98.0239 11.2403 98.5108 11.2403C98.9318 11.2403 99.3233 11.3379 99.6852 11.5333C100.047 11.7221 100.323 11.9727 100.514 12.2852V9.45312H101.422V16.6799H100.514V15.674C100.336 15.993 100.073 16.2567 99.7246 16.465C99.3759 16.6669 98.968 16.7678 98.5009 16.7678C98.0206 16.7678 97.5831 16.6506 97.1884 16.4162C96.8002 16.1818 96.4943 15.853 96.2706 15.4299C96.0469 15.0067 95.9351 14.5249 95.9351 13.9845ZM100.514 13.9943C100.514 13.5906 100.432 13.239 100.267 12.9395C100.103 12.6401 99.8792 12.4122 99.5963 12.2559C99.32 12.0932 99.0141 12.0118 98.6786 12.0118C98.343 12.0118 98.0371 12.0899 97.7608 12.2462C97.4844 12.4024 97.264 12.6303 97.0996 12.9298C96.9351 13.2293 96.8528 13.5808 96.8528 13.9845C96.8528 14.3947 96.9351 14.7527 97.0996 15.0587C97.264 15.3582 97.4844 15.5894 97.7608 15.7521C98.0371 15.9084 98.343 15.9865 98.6786 15.9865C99.0141 15.9865 99.32 15.9084 99.5963 15.7521C99.8792 15.5894 100.103 15.3582 100.267 15.0587C100.432 14.7527 100.514 14.3979 100.514 13.9943Z" fill="black"/>
<path d="M92.5929 11.2305C93.2509 11.2305 93.7838 11.429 94.1917 11.8262C94.5996 12.2168 94.8035 12.7832 94.8035 13.5255V16.6798H93.9154V13.6524C93.9154 13.1185 93.7805 12.7116 93.5107 12.4317C93.241 12.1452 92.8726 12.002 92.4054 12.002C91.9317 12.002 91.5534 12.1485 91.2705 12.4414C90.9942 12.7344 90.8561 13.1609 90.8561 13.7208V16.6798H89.958V11.3281H90.8561V12.0899C91.0337 11.8164 91.2738 11.6048 91.5765 11.4551C91.8857 11.3053 92.2245 11.2305 92.5929 11.2305Z" fill="black"/>
<path d="M88.4276 9.87309V16.6799H87.5295V9.87309H88.4276ZM87.9835 9.24808C87.8388 9.24808 87.7137 9.19925 87.6085 9.10159C87.5098 9.00393 87.4604 8.88348 87.4604 8.74025C87.4604 8.59702 87.5098 8.47657 87.6085 8.37891C87.7137 8.27474 87.8388 8.22266 87.9835 8.22266C88.1282 8.22266 88.2499 8.27474 88.3486 8.37891C88.4473 8.47657 88.4967 8.59702 88.4967 8.74025C88.4967 8.88348 88.4473 9.00393 88.3486 9.10159C88.2499 9.19925 88.1282 9.24808 87.9835 9.24808Z" fill="black"/>
<path d="M81.2209 11.2305C81.8788 11.2305 82.4117 11.429 82.8196 11.8262C83.2275 12.2168 83.4315 12.7832 83.4315 13.5255V16.6798H82.5433V13.6524C82.5433 13.1185 82.4084 12.7116 82.1387 12.4317C81.8689 12.1452 81.5005 12.002 81.0334 12.002C80.5597 12.002 80.1814 12.1485 79.8985 12.4414C79.6222 12.7344 79.484 13.1609 79.484 13.7208V16.6798H78.5859V11.3281H79.484V12.0899C79.6616 11.8164 79.9018 11.6048 80.2044 11.4551C80.5136 11.3053 80.8524 11.2305 81.2209 11.2305Z" fill="black"/>
<path d="M77.4007 13.7989C77.4007 13.9682 77.3909 14.1472 77.3711 14.336H73.0486C73.0815 14.8634 73.2625 15.2768 73.5914 15.5763C73.927 15.8693 74.3316 16.0158 74.8053 16.0158C75.1934 16.0158 75.5158 15.9279 75.7724 15.7521C76.0356 15.5698 76.2198 15.3289 76.3251 15.0294H77.2922C77.1474 15.5437 76.858 15.9637 76.4237 16.2892C75.9895 16.6082 75.45 16.7677 74.8053 16.7677C74.2921 16.7677 73.8316 16.6538 73.4237 16.4259C73.0223 16.1981 72.7065 15.8758 72.4763 15.4591C72.246 15.0359 72.1309 14.5476 72.1309 13.9942C72.1309 13.4408 72.2427 12.9558 72.4664 12.5391C72.6901 12.1224 73.0026 11.8034 73.4039 11.582C73.8118 11.3542 74.2789 11.2402 74.8053 11.2402C75.3184 11.2402 75.7724 11.3509 76.1672 11.5723C76.5619 11.7936 76.8645 12.0996 77.0751 12.4903C77.2922 12.8744 77.4007 13.3106 77.4007 13.7989ZM76.4731 13.6133C76.4731 13.2748 76.3974 12.9851 76.2461 12.7442C76.0948 12.4968 75.8875 12.3112 75.6244 12.1875C75.3678 12.0573 75.0816 11.9922 74.7658 11.9922C74.3118 11.9922 73.9237 12.1354 73.6013 12.4219C73.2855 12.7084 73.1046 13.1055 73.0585 13.6133H76.4731Z" fill="black"/>
<path d="M68.8023 11.2305C69.2234 11.2305 69.5984 11.3184 69.9273 11.4941C70.2563 11.6634 70.5162 11.9206 70.707 12.2657C70.8977 12.6107 70.9931 13.0306 70.9931 13.5255V16.6798H70.105V13.6524C70.105 13.1185 69.9701 12.7116 69.7003 12.4317C69.4372 12.1452 69.0786 12.002 68.6247 12.002C68.1575 12.002 67.7858 12.1517 67.5095 12.4512C67.2332 12.7442 67.095 13.1706 67.095 13.7305V16.6798H66.2068V13.6524C66.2068 13.1185 66.072 12.7116 65.8022 12.4317C65.539 12.1452 65.1805 12.002 64.7265 12.002C64.2594 12.002 63.8877 12.1517 63.6114 12.4512C63.335 12.7442 63.1969 13.1706 63.1969 13.7305V16.6798H62.2988V11.3281H63.1969V12.0996C63.3745 11.8197 63.6114 11.6048 63.9074 11.4551C64.2101 11.3053 64.5423 11.2305 64.9042 11.2305C65.3581 11.2305 65.7594 11.3314 66.1081 11.5332C66.4568 11.735 66.7167 12.0313 66.8878 12.4219C67.0391 12.0443 67.2891 11.7513 67.6378 11.543C67.9865 11.3346 68.3747 11.2305 68.8023 11.2305Z" fill="black"/>
<path d="M61.1136 13.7989C61.1136 13.9682 61.1038 14.1472 61.084 14.336H56.7615C56.7944 14.8634 56.9754 15.2768 57.3043 15.5763C57.6399 15.8693 58.0445 16.0158 58.5182 16.0158C58.9063 16.0158 59.2287 15.9279 59.4853 15.7521C59.7485 15.5698 59.9327 15.3289 60.0379 15.0294H61.0051C60.8603 15.5437 60.5709 15.9637 60.1366 16.2892C59.7024 16.6082 59.1629 16.7677 58.5182 16.7677C58.005 16.7677 57.5445 16.6538 57.1365 16.4259C56.7352 16.1981 56.4194 15.8758 56.1892 15.4591C55.9589 15.0359 55.8438 14.5476 55.8438 13.9942C55.8438 13.4408 55.9556 12.9558 56.1793 12.5391C56.403 12.1224 56.7155 11.8034 57.1168 11.582C57.5247 11.3542 57.9918 11.2402 58.5182 11.2402C59.0313 11.2402 59.4853 11.3509 59.88 11.5723C60.2748 11.7936 60.5774 12.0996 60.788 12.4903C61.0051 12.8744 61.1136 13.3106 61.1136 13.7989ZM60.186 13.6133C60.186 13.2748 60.1103 12.9851 59.959 12.7442C59.8077 12.4968 59.6004 12.3112 59.3373 12.1875C59.0807 12.0573 58.7945 11.9922 58.4787 11.9922C58.0247 11.9922 57.6366 12.1354 57.3142 12.4219C56.9984 12.7084 56.8175 13.1055 56.7714 13.6133H60.186Z" fill="black"/>
<path d="M54.6457 9.87305V16.6799H53.7476V13.5939H50.2442V16.6799H49.3462V9.87305H50.2442V12.8614H53.7476V9.87305H54.6457Z" fill="black"/>
</g>
<defs>
<linearGradient id="paint0_linear_437_406" x1="27.1721" y1="10.1273" x2="8.79225" y2="28.7006" gradientUnits="userSpaceOnUse">
<stop stop-color="#00A0FF"/>
<stop offset="0.007" stop-color="#00A1FF"/>
<stop offset="0.26" stop-color="#00BEFF"/>
<stop offset="0.512" stop-color="#00D2FF"/>
<stop offset="0.76" stop-color="#00DFFF"/>
<stop offset="1" stop-color="#00E3FF"/>
</linearGradient>
<linearGradient id="paint1_linear_437_406" x1="40.493" y1="22.4876" x2="13.7126" y2="22.4876" gradientUnits="userSpaceOnUse">
<stop stop-color="#FFE000"/>
<stop offset="0.409" stop-color="#FFBD00"/>
<stop offset="0.775" stop-color="#FFA500"/>
<stop offset="1" stop-color="#FF9C00"/>
</linearGradient>
<linearGradient id="paint2_linear_437_406" x1="30.5239" y1="25.0091" x2="5.5994" y2="50.1958" gradientUnits="userSpaceOnUse">
<stop stop-color="#FF3A44"/>
<stop offset="1" stop-color="#C31162"/>
</linearGradient>
<linearGradient id="paint3_linear_437_406" x1="11.1226" y1="0.782089" x2="22.2524" y2="12.0291" gradientUnits="userSpaceOnUse">
<stop stop-color="#32A071"/>
<stop offset="0.069" stop-color="#2DA771"/>
<stop offset="0.476" stop-color="#15CF74"/>
<stop offset="0.801" stop-color="#06E775"/>
<stop offset="1" stop-color="#00F076"/>
</linearGradient>
<clipPath id="clip0_437_406">
<rect width="176" height="44" fill="white"/>
</clipPath>
</defs>
</svg>
