<svg width="83" height="84" viewBox="0 0 83 84" fill="none" xmlns="http://www.w3.org/2000/svg">
<path fill-rule="evenodd" clip-rule="evenodd" d="M52.2577 36.8671C52.2579 36.8663 52.2589 36.866 52.2596 36.8664C52.2603 36.8669 52.2613 36.8665 52.2615 36.8657L52.3333 36.636C52.351 36.5805 52.3683 36.5249 52.3854 36.4692L59.1153 14.928C60.0149 12.0487 57.3212 9.33893 54.4366 10.2212L49.7771 11.6464C49.946 13.0824 49.4997 14.5802 48.4268 15.7113C47.3282 16.8695 45.8109 17.3919 44.335 17.2665C43.813 17.2221 43.2959 17.5167 43.0811 17.9945C42.8201 18.5752 42.4584 19.1226 41.9955 19.6107C39.7869 21.9391 36.109 22.0362 33.7807 19.8276C33.3887 19.4558 32.7709 19.3933 32.2828 19.6248C30.9768 20.2443 29.3826 20.0743 28.2283 19.0955C27.5438 19.5874 26.89 20.141 26.2746 20.7565C22.5008 24.5302 21.0499 29.7473 21.9219 34.6308C22.2633 34.3655 22.5919 34.1264 22.9006 33.9188C31.216 28.3263 32.3568 27.3488 35.9903 23.5521L36.3237 23.8855L36.5143 24.0761L36.4769 24.1135L36.5314 24.0932C32.3953 28.2615 24.3635 36.6641 23.3367 38.8938C23.5872 39.3934 23.8661 39.8824 24.1733 40.3585C26.666 39.0085 35.0456 30.9847 39.25 26.8118L39.2371 26.8453L39.2603 26.8221L39.6928 27.2546L39.6604 27.287L39.7031 27.2649C35.9199 31.0686 29.8462 37.2993 25.4717 42.0939C25.7265 42.3896 25.9941 42.678 26.2745 42.9585C26.5622 43.2461 26.8582 43.5203 27.1619 43.7809C31.9563 39.4065 38.186 33.3338 41.9892 29.551L41.9671 29.5937L41.9995 29.5613L42.432 29.9938L42.3996 30.0262L42.4423 30.0041C38.695 33.7717 32.7006 39.9204 28.336 44.6961C29.0166 45.1766 29.727 45.5965 30.4595 45.956C35.0662 41.7736 41.0707 35.9274 44.7284 32.2902L44.694 32.3589L44.7455 32.3074L45.1266 32.6885L45.2695 32.8314C41.4728 36.4649 40.4953 37.6056 34.9028 45.921C34.6381 46.3146 34.3223 46.7405 33.9662 47.184C39.0286 48.3051 44.5385 46.8966 48.4766 42.9585C50.2498 41.1852 51.5102 39.0933 52.2577 36.8671Z" fill="#FFC700"/>
<path d="M35.5926 12.3332C36.2685 11.0986 38.4455 12.1517 39.6801 12.8276C40.9148 13.5035 41.3677 15.0523 40.6918 16.2869C40.0159 17.5216 38.4671 17.9745 37.2325 17.2987C35.9979 16.6228 34.9167 13.5679 35.5926 12.3332Z" fill="#FFC700"/>
<path d="M30.0829 13.9042C30.8792 13.4831 31.8662 13.7873 32.2873 14.5837C32.7084 15.38 31.9396 17.9964 31.1433 18.4175C30.3469 18.8386 29.8245 16.9049 29.4034 16.1086C28.9823 15.3122 29.2866 14.3253 30.0829 13.9042Z" fill="#FFC700"/>
<path d="M44.3783 11.2295C44.8109 10.4393 45.8021 10.1494 46.5922 10.582C47.3824 11.0146 47.6723 12.0058 47.2397 12.796C46.8072 13.5861 45.3509 14.7255 44.5608 14.293C43.7706 13.8604 43.9457 12.0196 44.3783 11.2295Z" fill="#FFC700"/>
<path d="M82.4494 72.6649C82.7535 72.6649 83.0001 72.9103 83.0001 73.2131V76.7576C83.0001 77.0603 82.7535 77.3057 82.4494 77.3057H66.5172C66.2131 77.3057 65.9666 77.0603 65.9666 76.7576V73.7568C65.9666 73.6187 66.019 73.4856 66.1133 73.3843L74.3606 64.5233C74.6872 64.1724 74.4372 63.6027 73.9567 63.6027H66.7375C66.4334 63.6027 66.1868 63.3573 66.1868 63.0546V59.51C66.1868 59.2073 66.4334 58.9619 66.7375 58.9619H82.119C82.4231 58.9619 82.6697 59.2073 82.6697 59.51V62.5827C82.6697 62.7215 82.6167 62.8552 82.5216 62.9567L74.2833 71.7428C73.9548 72.0932 74.2044 72.6649 74.6859 72.6649H82.4494Z" fill="#FFC700"/>
<path d="M60.3784 49.79C62.482 49.79 64.0012 51.3496 64.0012 53.1692C64.0012 55.0629 62.482 56.474 60.3784 56.474C58.2749 56.474 56.7947 55.0629 56.7947 53.1692C56.7947 51.3496 58.2749 49.79 60.3784 49.79ZM63.4948 76.7487C63.4948 77.0563 63.2332 77.3057 62.9105 77.3057H57.8464C57.5237 77.3057 57.2621 77.0563 57.2621 76.7487V59.2219C57.2621 58.9142 57.5237 58.6649 57.8464 58.6649H62.9105C63.2332 58.6649 63.4948 58.9142 63.4948 59.2219V76.7487Z" fill="#FFC700"/>
<path d="M54.8148 58.3066C55.1564 58.3066 55.4343 58.3226 55.7109 58.3649C55.974 58.4052 56.1505 58.6469 56.1389 58.9127L55.9209 63.8927C55.9078 64.1921 55.6612 64.4281 55.3614 64.4281H54.8148C50.633 64.4281 48.3555 66.593 48.3555 71.4454V76.7457C48.3555 77.0549 48.1047 77.3056 47.7954 77.3056H42.9416C42.6323 77.3056 42.3816 77.0549 42.3816 76.7457V59.1278C42.3816 58.8186 42.6323 58.5679 42.9416 58.5679H47.7954C48.1047 58.5679 48.3555 58.8186 48.3555 59.1278V60.1298C48.3555 60.6977 49.1758 60.9496 49.5657 60.5366C50.8469 59.1798 52.5566 58.3066 54.8148 58.3066Z" fill="#FFC700"/>
<path d="M40.4163 68.1337V69.0942C40.4163 69.4003 40.1648 69.6484 39.8547 69.6484H27.3359C26.9779 69.6484 26.7097 69.9761 26.8246 70.3108C27.4504 72.1341 28.8712 73.2319 30.6828 73.2319C31.9738 73.2319 33.4599 72.9431 34.4744 71.4382C34.6105 71.2362 34.8525 71.1222 35.0933 71.1707L39.3425 72.0271C39.6867 72.0965 39.8831 72.4584 39.7311 72.7709C38.028 76.2725 34.7579 77.9607 30.6828 77.9607C25.2546 77.9607 20.7622 74.0077 20.7622 68.1337C20.7622 62.2966 25.2546 58.3066 30.7203 58.3066C36.0362 58.3066 40.304 62.0749 40.4163 68.1337ZM30.7203 63.1093C29.2537 63.1093 27.7588 63.8932 27.0259 65.3392C26.8582 65.6701 27.1276 66.0279 27.5025 66.0279H33.7625C34.1339 66.0279 34.4044 65.6765 34.2536 65.3415C33.5689 63.8201 32.231 63.1093 30.7203 63.1093Z" fill="#FFC700"/>
<path d="M20.8692 58.3066C21.2627 58.3066 21.5276 58.7256 21.3719 59.1015L11.2611 83.5128C11.1746 83.7216 10.977 83.8569 10.7585 83.8569H5.63921C5.24533 83.8569 4.98037 83.4371 5.13693 83.0611L7.66772 76.9825C7.72752 76.8389 7.72786 76.676 7.66867 76.5321L0.49762 59.1002C0.343048 58.7244 0.607992 58.3066 1.00084 58.3066H6.07922C6.30199 58.3066 6.50254 58.4471 6.58636 58.6618L10.2995 68.1733C10.482 68.6409 11.1159 68.6486 11.3088 68.1855L15.2817 58.6496C15.3685 58.4414 15.5658 58.3066 15.7839 58.3066H20.8692Z" fill="#FFC700"/>
</svg>
